<svg xmlns="http://www.w3.org/2000/svg" style="display: none;">
  <defs>
    <symbol id="bottles" width="24" height="29" fill="none" viewBox="0 0 24 29">
      <path fill="currentColor"
        d="M12.303 13.05V26.1c0 .77-.432 1.507-1.201 2.05-.77.545-1.812.85-2.9.85H4.101c-1.088 0-2.13-.305-2.9-.85C.432 27.608 0 26.87 0 26.1V13.05c.002-.384.112-.763.323-1.117a3.1 3.1 0 0 1 .907-.942C4.306 8.541 4.101 2.9 4.101 2.9h-2.05V0h8.201v2.9h-2.05s-.205 5.64 2.87 8.091a3.1 3.1 0 0 1 .908.942c.21.354.32.733.323 1.117Zm11.424 3.383v10.282c0 .606-.34 1.187-.944 1.616-.604.428-1.423.669-2.278.669h-3.222c-.855 0-1.674-.24-2.279-.67-.604-.428-.943-1.009-.943-1.615V16.433c.001-.302.088-.601.254-.88a2.45 2.45 0 0 1 .712-.742c2.417-1.93 2.256-6.375 2.256-6.375h-1.611V6.151h6.444v2.285h-1.61s-.162 4.444 2.255 6.375c.304.212.546.464.712.742.166.279.253.578.254.88Z" />
    </symbol>


    <symbol id="statistics" width="30" height="30" fill="none" viewBox="0 0 30 30">
      <rect width="8.333" height="12.5" y="17.5" fill="currentColor" rx="4" />
      <rect width="8.333" height="20" x="10.834" y="10" fill="currentColor" rx="4" />
      <rect width="8.333" height="30" x="21.666" fill="currentColor" rx="4" />
    </symbol>


    <symbol id="quotes" width="25" height="25" fill="none" viewBox="0 0 25 25">
      <path fill="currentColor"
        d="M18.75 12.5V1.625c0-.32-.132-.628-.366-.854A1.272 1.272 0 0 0 17.5.417H1.25C.918.417.6.544.366.77A1.188 1.188 0 0 0 0 1.625v16.917l5-4.834h12.5c.331 0 .65-.127.884-.354.234-.226.366-.534.366-.854Zm5-7.25h-2.5v10.875H5v2.417c0 .32.132.627.366.854.235.227.552.354.884.354H20l5 4.833V6.458c0-.32-.132-.628-.366-.854a1.272 1.272 0 0 0-.884-.354Z" />
    </symbol>


    <symbol id="video" width="26" height="17" fill="none" viewBox="0 0 26 17">
      <path fill="currentColor"
        d="M20.222 6.375V1.417c0-.376-.152-.736-.423-1.002A1.459 1.459 0 0 0 18.778 0H1.444c-.383 0-.75.15-1.02.415A1.393 1.393 0 0 0 0 1.417v14.166c0 .376.152.736.423 1.002S1.061 17 1.444 17h17.334c.383 0 .75-.15 1.021-.415.271-.266.423-.626.423-1.002v-4.958L26 16.292V.708l-5.778 5.667Z" />
    </symbol>


    <symbol id="go" width="13" height="15" fill="none" viewBox="0 0 13 15">
      <path fill="currentColor" d="M12.579 7.29.145.11v14.358L12.579 7.29Z"/>
    </symbol>


    <symbol id="book" width="26" height="24" fill="none" viewBox="0 0 26 24">
      <path fill="currentColor"
        d="m21.273 0-5.91 5.854v12.878l5.91-5.269V0Zm2.363 4.683v15.805c-1.3-.41-2.718-.586-4.136-.586-2.01 0-4.905.761-6.5 1.756V5.854c-1.714-1.288-4.195-1.756-6.5-1.756-2.305 0-4.786.468-6.5 1.756v17.15c0 .294.295.586.59.586.12 0 .178-.058.296-.058 1.596-.761 3.9-1.288 5.614-1.288 2.305 0 4.786.468 6.5 1.756 1.595-.995 4.49-1.756 6.5-1.756 1.95 0 3.96.351 5.614 1.23a.54.54 0 0 0 .295.058c.296 0 .591-.293.591-.586V5.854c-.71-.527-1.477-.878-2.364-1.171Zm-13 15.7c-1.477-.375-2.954-.48-4.136-.48-1.253 0-2.742.222-4.136.585V7.177c1.075-.469 2.529-.738 4.136-.738 1.607 0 3.06.27 4.136.738v13.205Z" />
    </symbol>


    <symbol id="music" width="17" height="25" fill="none" viewBox="0 0 17 25">
      <path fill="currentColor"
        d="M8.5 0v14.653a5.749 5.749 0 0 0-2.833-.764C2.536 13.889 0 16.375 0 19.444 0 22.514 2.536 25 5.667 25c3.13 0 5.666-2.486 5.666-5.556V5.556H17V0H8.5Z" />

    </symbol>


    <symbol id="bottle_horizental" width="122" height="41" fill="none" viewBox="0 0 122 41">
      <g filter="url(#filterBottleHorizental)">
        <path fill="currentColor" fill-rule="evenodd"
          d="M115.695 13.076a3.334 3.334 0 0 0-3.089-2.033l-.916.006a3.327 3.327 0 0 0-3.214 2.549C97.98 13.25 81.43 12.42 80.029 10.613 74.776 3.72 68.994.854 61.482.929 56.88.978 40.548.867 26.932.774l-8.23-.055C13.848.706 6.005 1.855 2.531 8.595l-.183.433c-.753 1.694-1.196 3.487-1.4 5.318-.202 2.355-.32 5.314.003 6.812-.147 1.605-.015 3.998.186 5.962.192 1.807.7 3.62 1.462 5.286l.172.425c3.514 6.7 11.384 7.74 16.245 7.66 4.493-.081 9.834-.181 15.219-.282 11.757-.221 23.728-.446 27.56-.486 7.51-.073 13.251-2.974 18.422-9.953 1.36-1.826 17.832-2.882 28.324-3.374a3.334 3.334 0 0 0 3.272 2.605l.916-.005a3.325 3.325 0 0 0 2.886-1.708l4.198 1.204c.766.23 1.591-.284 1.573-.995l-.043-7.217.039-.015a.936.936 0 0 0-.063-.322l-.042-7.05c-.018-.711-.816-1.243-1.619-1.008l-3.964 1.19Z"
          clip-rule="evenodd" />
      </g>
      <defs>
        <filter id="filterBottleHorizental" width="124.636" height="43.777" x=".752" y=".719"
          color-interpolation-filters="sRGB" filterUnits="userSpaceOnUse">
          <feFlood flood-opacity="0" result="BackgroundImageFix" />
          <feBlend in="SourceGraphic" in2="BackgroundImageFix" result="shape" />
          <feColorMatrix in="SourceAlpha" result="hardAlpha"
            values="0 0 0 0 0 0 0 0 0 0 0 0 0 0 0 0 0 0 127 0" />
          <feOffset dx="5" dy="4" />
          <feGaussianBlur stdDeviation="2" />
          <feComposite in2="hardAlpha" k2="-1" k3="1" operator="arithmetic" />
          <feColorMatrix values="0 0 0 0 0 0 0 0 0 0 0 0 0 0 0 0 0 0 0.25 0" />
          <feBlend in2="shape" result="effect1_innerShadow_285_516" />
        </filter>
      </defs>
    </symbol>


    <symbol id="question" width="19" height="19" fill="none" viewBox="0 0 19 19">
      <path fill="currentColor" fill-rule="evenodd"
        d="M9.5 19a9.5 9.5 0 1 0 0-19 9.5 9.5 0 0 0 0 19ZM5.85 5.926c-.338.51-.506 1.013-.506 1.508 0 .24.107.465.32.672.214.207.475.309.785.309.526 0 .884-.295 1.073-.886.2-.564.443-.992.731-1.283.289-.29.736-.434 1.347-.434.521 0 .946.142 1.276.43.33.288.494.642.494 1.06.002.21-.054.416-.161.596a2.267 2.267 0 0 1-.4.498c-.249.228-.506.45-.769.662a13.09 13.09 0 0 0-.964.867c-.237.244-.43.526-.574.847-.382 1.478 1.604 1.597 2.062.541.056-.102.14-.213.253-.337.114-.122.265-.265.454-.427.48-.4.953-.81 1.417-1.228.263-.243.49-.532.68-.867.198-.358.297-.76.288-1.169a2.68 2.68 0 0 0-.503-1.567c-.335-.482-.81-.862-1.425-1.143-.615-.279-1.324-.419-2.128-.419-.865 0-1.621.167-2.27.503-.648.334-1.14.757-1.48 1.267Zm2.542 8.407a1.187 1.187 0 1 0 2.375 0 1.187 1.187 0 0 0-2.375 0Z"
        clip-rule="evenodd" />
    </symbol>


    <symbol id="headset" width="19" height="19" fill="none" viewBox="0 0 19 19">
      <path fill="currentColor"
        d="M17.599 9.5a3.58 3.58 0 0 0-2.137-2.153l-.024-2.003C15.438 2.375 12.503 0 8.905 0s-6.53 2.375-6.53 5.344v1.995A3.57 3.57 0 0 0 0 10.687v1.188a3.563 3.563 0 0 0 3.563 3.563H4.75V7.124H3.562v-1.78c0-2.292 2.376-4.157 5.344-4.157 2.969 0 5.344 1.865 5.344 4.157v1.781h-1.188v8.313h1.188a3.563 3.563 0 0 0 3.563-3.563v2.054a3.883 3.883 0 0 1-3.884 3.883h-2.054a1.188 1.188 0 0 0-1.188-1.187H9.5A1.187 1.187 0 1 0 9.5 19h4.43A5.07 5.07 0 0 0 19 13.93V9.5h-1.401Z" />
    </symbol>


    <symbol id="announcement" width="19" height="17" fill="none" viewBox="0 0 19 17">
      <path fill="currentColor"
        d="M9.744 3.897H1.949A1.949 1.949 0 0 0 0 5.847v3.897a1.949 1.949 0 0 0 1.949 1.948h.974v3.898a.974.974 0 0 0 .974.974h1.95a.974.974 0 0 0 .974-.974v-3.898h2.923l4.871 3.898V0L9.744 3.897ZM19 7.795a4.303 4.303 0 0 1-2.436 3.897V3.897A4.342 4.342 0 0 1 19 7.795Z" />
    </symbol>


    <symbol id="list" width="17" height="17" fill="none" viewBox="0 0 17 17">
      <path fill="currentColor" fill-rule="evenodd"
        d="M2.504 0A2.504 2.504 0 0 0 0 2.504v11.992A2.504 2.504 0 0 0 2.504 17h11.794a2.504 2.504 0 0 0 2.504-2.504V2.504A2.504 2.504 0 0 0 14.3 0H2.504ZM3.92 4.991h8.961V3.508h-8.96v1.483Zm8.961 4.25h-8.96V7.758h8.96v1.483Zm-8.96 4.25h8.96v-1.483h-8.96v1.482Z"
        clip-rule="evenodd" />
    </symbol>


    <symbol id="information" width="18" height="22" fill="none" viewBox="0 0 18 22">
      <path fill="currentColor"
        d="M7.7 16.5h2.2V9.9H7.7v6.6Zm1.1-8.8c.312 0 .573-.106.784-.317A1.06 1.06 0 0 0 9.9 6.6c0-.312-.106-.573-.317-.784A1.06 1.06 0 0 0 8.8 5.5c-.312 0-.573.106-.784.317A1.06 1.06 0 0 0 7.7 6.6c0 .312.106.573.317.784.211.212.472.317.783.316Zm0 14.3c-2.548-.642-4.652-2.104-6.312-4.387C.828 15.33 0 12.796 0 10.01V3.3L8.8 0l8.8 3.3v6.71c0 2.787-.83 5.321-2.49 7.604C13.452 19.897 11.349 21.36 8.8 22Z" />
    </symbol>


    <symbol id="version" width="22" height="17" fill="none" viewBox="0 0 22 17">
      <path fill="currentColor"
        d="M5.744 7.286c.49-2.429 2.69-4.25 5.256-4.25 1.833 0 3.3.85 4.278 2.185l2.078-2.428C15.889 1.093 13.566 0 11 0 6.722 0 3.178 3.157 2.567 7.286H0l4.278 4.857 4.278-4.857H5.744Zm11.978-2.429-4.278 4.857h2.812c-.612 2.429-2.69 4.25-5.256 4.25-1.833 0-3.3-.85-4.278-2.185l-2.078 2.307C6.111 15.907 8.434 17 11 17c4.278 0 7.822-3.157 8.433-7.286H22l-4.278-4.857Z" />
    </symbol>


    <symbol id="musicPlay" width="50" height="50" fill="none" viewBox="0 -6 50 50">
      <g filter="url(#filtermusicPlay)">
        <circle cx="25" cy="23" r="19" fill="white" />
        <circle cx="25" cy="23" r="18.5" stroke="#1771B2" />
      </g>
      <path d="M21 30.9282L33 24L21 17.0718L21 30.9282Z" fill="#1771B2" stroke="#1771B2" />
      <defs>
        <filter id="filtermusicPlay" x="0" y="0" width="50" height="50" filterUnits="userSpaceOnUse"
          color-interpolation-filters="sRGB">
          <feFlood flood-opacity="0" result="BackgroundImageFix" />
          <feColorMatrix in="SourceAlpha" type="matrix"
            values="0 0 0 0 0 0 0 0 0 0 0 0 0 0 0 0 0 0 127 0" result="hardAlpha" />
          <feOffset dy="2" />
          <feGaussianBlur stdDeviation="3" />
          <feComposite in2="hardAlpha" operator="out" />
          <feColorMatrix type="matrix" values="0 0 0 0 0 0 0 0 0 0 0 0 0 0 0 0 0 0 0.04 0" />
          <feBlend mode="normal" in2="BackgroundImageFix" result="effect1_dropShadow_106_717" />
          <feBlend mode="normal" in="SourceGraphic" in2="effect1_dropShadow_106_717" result="shape" />
        </filter>
      </defs>
    </symbol>


    <symbol id="remove" width="18" height="18" fill="none" viewBox="0 0 18 18">
      <rect width="3.21" height="22.059" fill="currentColor" rx="1.605"
        transform="rotate(44.995 7.8 18.833)" />
      <rect width="3.21" height="22.059" fill="currentColor" rx="1.605"
        transform="rotate(135.005 5.77 11.526)" />
    </symbol>
    <symbol id="step_forward" width="15" height="21" fill="none" viewBox="0 0 15 21">
      <path stroke="#2E2E2E" stroke-linecap="round" stroke-linejoin="round" stroke-width="1.6"
        d="M1 4.09c0-1.665 1.914-2.601 3.228-1.58l8.242 6.411a2 2 0 0 1 0 3.158l-8.242 6.41C2.914 19.511 1 18.575 1 16.911V4.089ZM13.5 2v17" />
    </symbol>
    <symbol id="step_backward" width="15" height="21" fill="none" viewBox="0 0 15 21">
      <path stroke="#2E2E2E" stroke-linecap="round" stroke-linejoin="round" stroke-width="1.6"
        d="M13.5 4.09c0-1.665-1.914-2.601-3.228-1.58L2.03 8.922a2 2 0 0 0 0 3.158l8.242 6.41c1.314 1.022 3.228.086 3.228-1.578V4.089ZM1 2v17" />
    </symbol>
    <symbol id="pause" width="16" height="19" fill="none" viewBox="0 0 16 19">
      <path stroke="#2E2E2E" stroke-linecap="round" stroke-linejoin="round" stroke-width="1.6"
        d="M1 1.817A1 1 0 0 1 2.535.972l12.131 7.683a1 1 0 0 1 0 1.69l-12.13 7.683A1 1 0 0 1 1 17.183V1.817Z" />
    </symbol>
    <symbol id="heart" width="22" height="20" fill="none" viewBox="0 0 22 20">
      <path stroke="#2E2E2E" stroke-linejoin="round" stroke-width="1.3"
        d="M6 1c-1.375 0-2.6.607-3.525 1.557A5.37 5.37 0 0 0 1 6.28c0 1.45.575 2.743 1.475 3.72L11 19l8.525-9A5.37 5.37 0 0 0 21 6.279c0-1.452-.575-2.745-1.475-3.722C18.625 1.607 17.4 1 16 1c-1.375 0-2.6.607-3.525 1.557 0 0-.975.943-1.475 1.443-.5-.5-1.475-1.443-1.475-1.443C8.625 1.607 7.4 1 6 1Z" />
    </symbol>
    <symbol id="play" width="13" height="20" fill="none" viewBox="0 0 13 20">
      <path stroke="#2E2E2E" stroke-linecap="round" stroke-width="1.7"
        d="M1 1v17.674M11.612 1v17.674" />
    </symbol>
    <symbol id="musiclist" width="20" height="19" fill="none" viewBox="0 0 20 19">
      <path stroke="#2E2E2E" stroke-linecap="round" stroke-linejoin="round" stroke-width="1.8"
        d="M5 2.883h6.5m-6.5 6h6.5m-6.5 6h1.7" />
      <path stroke="#2E2E2E" stroke-linecap="round" stroke-linejoin="round" stroke-width="1.9"
        d="M1 2.883h.01m-.01 6h.01m-.01 6h.01" />
      <path fill="#2E2E2E" fill-rule="evenodd"
        d="M14.393.242a.881.881 0 0 1 1.258.044c.823.898 1.927 2.348 2.676 3.36a5.432 5.432 0 0 1 1.056 3.237.883.883 0 0 1-1.766 0c0-.794-.246-1.56-.71-2.187-.305-.412-.66-.885-1.024-1.355v11.542a.887.887 0 0 1-.016.166 3.358 3.358 0 0 1-3.344 3.565 3.358 3.358 0 0 1-3.35-3.366c0-1.858 1.5-3.365 3.35-3.365.577 0 1.12.146 1.594.405V.883a.878.878 0 0 1 .276-.641Zm-1.87 16.606c.867 0 1.584-.708 1.584-1.6 0-.89-.717-1.6-1.584-1.6-.867 0-1.584.71-1.584 1.6 0 .892.717 1.6 1.584 1.6Z"
        clip-rule="evenodd" />
    </symbol>


    <symbol id="camera" width="39" height="33" fill="none" viewBox="0 0 39 33">
      <path fill="currentColor" stroke="#fff" stroke-linecap="round" stroke-linejoin="round"
        stroke-width="2"
        d="M38 27.91a3.364 3.364 0 0 1-3.364 3.363H4.364A3.364 3.364 0 0 1 1 27.909V9.41a3.364 3.364 0 0 1 3.364-3.364h6.727L14.455 1h10.09l3.364 5.045h6.727A3.364 3.364 0 0 1 38 9.41v18.5Z" />
      <path fill="currentColor" stroke="#365575" stroke-linecap="round" stroke-linejoin="round"
        stroke-width="2" d="M19.5 25.546a7.727 7.727 0 1 0 0-15.455 7.727 7.727 0 0 0 0 15.455Z" />
      <circle cx="32.114" cy="9.357" r=".841" fill="currentColor" />
    </symbol>


    <symbol id="leftDir" width="10" height="18" fill="none" viewBox="0 0 10 18">
      <path stroke="#4F4F4F" stroke-linecap="round" stroke-width="2"
        d="M9 1 1.575 8.425a.812.812 0 0 0 0 1.15L9 17" />
    </symbol>


    <symbol id="rightDir" width="10" height="18" fill="none" viewBox="0 0 10 18">
      <path stroke="#4F4F4F" stroke-linecap="round" stroke-width="2"
        d="m1 1 7.425 7.425a.812.812 0 0 1 0 1.15L1 17" />
    </symbol>


    <symbol id="nextArrow" width="9" height="16" fill="none" viewBox="0 0 9 16">
      <path d="M1 1L7 8L1 15" stroke="#A7A7A7" stroke-width="2" />
    </symbol>

    <symbol id="plus" width="45" height="45" fill="none" viewBox="0 0 45 45">
      <g filter="url(#filterPlus)">
        <path fill="currentColor" fill-rule="evenodd"
          d="M39 20.5C39 29.613 31.613 37 22.5 37S6 29.613 6 20.5 13.387 4 22.5 4 39 11.387 39 20.5Zm-18-8.523c0-.678.55-1.227 1.228-1.227h.546c.677 0 1.227.55 1.227 1.227V19h7.02c.679 0 1.228.55 1.228 1.227v.546c0 .678-.55 1.227-1.227 1.227H24v7.023c0 .678-.55 1.227-1.227 1.227h-.546c-.678 0-1.227-.55-1.227-1.227V22h-7.025c-.677 0-1.227-.55-1.227-1.227v-.546c0-.678.55-1.227 1.227-1.227H21v-7.023Z"
          clip-rule="evenodd" />
      </g>
      <defs>
        <filter id="filterPlus" width="45" height="45" x="0" y="0"
          color-interpolation-filters="sRGB" filterUnits="userSpaceOnUse">
          <feFlood flood-opacity="0" result="BackgroundImageFix" />
          <feColorMatrix in="SourceAlpha" result="hardAlpha"
            values="0 0 0 0 0 0 0 0 0 0 0 0 0 0 0 0 0 0 127 0" />
          <feOffset dy="2" />
          <feGaussianBlur stdDeviation="3" />
          <feComposite in2="hardAlpha" operator="out" />
          <feColorMatrix values="0 0 0 0 0 0 0 0 0 0 0 0 0 0 0 0 0 0 0.21 0" />
          <feBlend in2="BackgroundImageFix" result="effect1_dropShadow_532_174" />
          <feBlend in="SourceGraphic" in2="effect1_dropShadow_532_174" result="shape" />
        </filter>
      </defs>
    </symbol>


    <symbol id="navBottle" width="32" height="48" fill="none" viewBox="0 0 32 48">
      <g filter="url(#filterNavBottle)">
        <path fill="currentColor"
          d="M28.058 16.535a6.286 6.286 0 0 1 .284-4.61l3.251-6.986-.008-.004c.324-1.008-.999-2.543-3.048-3.497-2.05-.953-4.076-.978-4.64-.08l-.007-.004-3.217 6.913a5.178 5.178 0 0 1-3.511 2.853 11.465 11.465 0 0 0-6.207 3.788c-.503.6-.91 1.276-1.213 1.999l-8.54 20.311c-1.405 3.018 1.173 7.194 5.757 9.328 4.584 2.133 9.439 1.416 10.843-1.601l10.377-20.27c1.267-2.677.579-6.006-.122-8.14h.001Z" />
      </g>
      <defs>
        <filter id="filterNavBottle" width="32.816" height="49.071" x=".818" y=".703"
          color-interpolation-filters="sRGB" filterUnits="userSpaceOnUse">
          <feFlood flood-opacity="0" result="BackgroundImageFix" />
          <feBlend in="SourceGraphic" in2="BackgroundImageFix" result="shape" />
          <feColorMatrix in="SourceAlpha" result="hardAlpha"
            values="0 0 0 0 0 0 0 0 0 0 0 0 0 0 0 0 0 0 127 0" />
          <feOffset dx="2" dy="2" />
          <feGaussianBlur stdDeviation="1" />
          <feComposite in2="hardAlpha" k2="-1" k3="1" operator="arithmetic" />
          <feColorMatrix values="0 0 0 0 0 0 0 0 0 0 0 0 0 0 0 0 0 0 0.2 0" />
          <feBlend in2="shape" result="effect1_innerShadow_285_615" />
        </filter>
      </defs>
    </symbol>


    <symbol id="navMusic" width="42" height="46" fill="none" viewBox="0 0 42 46">
      <g filter="url(#filterNavMusic)">
        <path fill="currentColor"
          d="M42 1.964a1 1 0 0 0-1.249-.969l-28 7.2a1 1 0 0 0-.751.969v23.848c-1.225-1.267-2.929-2.048-4.876-2.048a7.124 7.124 0 1 0 0 14.248c3.934 0 6.876-3.19 6.876-7.124a9.205 9.205 0 0 0 0-.124V19.539l26-6.685v18.158c-1.225-1.267-2.929-2.048-4.876-2.048a7.124 7.124 0 1 0 0 14.248c3.934 0 6.876-3.19 6.876-7.124 0-.13-.003-.258-.01-.386a1 1 0 0 0 .01-.138v-33.6Z" />
      </g>
      <defs>
        <filter id="filterNavMusic" width="42" height="46.248" x="0" y=".964"
          color-interpolation-filters="sRGB" filterUnits="userSpaceOnUse">
          <feFlood flood-opacity="0" result="BackgroundImageFix" />
          <feBlend in="SourceGraphic" in2="BackgroundImageFix" result="shape" />
          <feColorMatrix in="SourceAlpha" result="hardAlpha"
            values="0 0 0 0 0 0 0 0 0 0 0 0 0 0 0 0 0 0 127 0" />
          <feOffset dy="2" />
          <feGaussianBlur stdDeviation="1" />
          <feComposite in2="hardAlpha" k2="-1" k3="1" operator="arithmetic" />
          <feColorMatrix values="0 0 0 0 0 0 0 0 0 0 0 0 0 0 0 0 0 0 0.2 0" />
          <feBlend in2="shape" result="effect1_innerShadow_285_622" />
        </filter>
      </defs>
    </symbol>


    <symbol id="glassBottle" width="168" height="299" fill="none" viewBox="0 0 168 299">
      <g filter="url(#filterGlassBottle)">
        <path fill="currentColor" fill-rule="evenodd"
          d="M126.544 13.51a8.488 8.488 0 0 0-7.744 5.353l-.859 2.167c-1.467 3.697-.149 7.808 2.952 10.02-10.826 24.444-28.565 62.721-34.168 64.303-21.278 5.829-33.557 16.745-40.544 34.55-4.272 10.91-20.104 49.351-33.304 81.402l-.002.004-.001.004a60683.74 60683.74 0 0 0-7.978 19.376c-4.658 11.445-9.421 31.051 3.176 45.677l.847.847c3.281 3.392 7.092 6.147 11.22 8.373 5.365 2.723 12.239 5.824 16.082 6.49 3.648 1.878 9.425 3.847 14.251 5.244 4.448 1.272 9.214 1.802 13.874 1.59h1.165c19.17-1.908 29.125-19.496 33.573-31.045 4.092-10.683 8.947-23.385 13.842-36.193 10.689-27.965 21.572-56.438 25.131-65.522 6.99-17.8 5.614-34.117-5.93-52.976-3.013-4.951 10.199-44.844 19.041-70.079 3.856.64 7.77-1.463 9.269-5.24l.86-2.168a8.464 8.464 0 0 0-1.28-8.441l6.845-8.762c1.273-1.589.849-4.026-.848-4.661l-17.076-6.78v-.107a2.367 2.367 0 0 0-.821-.157L131.437.156c-1.697-.636-3.712.742-3.924 2.86l-.969 10.494Z"
          clip-rule="evenodd" />
      </g>
      <defs>
        <filter id="filterGlassBottle" width="171.602" height="302.955" x="0" y="0"
          color-interpolation-filters="sRGB" filterUnits="userSpaceOnUse">
          <feFlood flood-opacity="0" result="BackgroundImageFix" />
          <feBlend in="SourceGraphic" in2="BackgroundImageFix" result="shape" />
          <feColorMatrix in="SourceAlpha" result="hardAlpha"
            values="0 0 0 0 0 0 0 0 0 0 0 0 0 0 0 0 0 0 127 0" />
          <feOffset dx="5" dy="4" />
          <feGaussianBlur stdDeviation="2" />
          <feComposite in2="hardAlpha" k2="-1" k3="1" operator="arithmetic" />
          <feColorMatrix values="0 0 0 0 0 0 0 0 0 0 0 0 0 0 0 0 0 0 0.25 0" />
          <feBlend in2="shape" result="effect1_innerShadow_285_712" />
        </filter>
      </defs>
    </symbol>


    <symbol id="setting" width="46" height="44" fill="none" viewBox="0 0 46 44">
      <mask id="maskSetting" width="46" height="44" x="0" y="0" maskUnits="userSpaceOnUse"
        style="mask-type:luminance">
        <path fill="#ffffff"
          d="M16.181 43.554a22.65 22.65 0 0 1-9.85-6.008A6.797 6.797 0 0 0 .46 26.4 22.758 22.758 0 0 1 0 21.837c0-2.367.363-4.651 1.038-6.797h.095a6.796 6.796 0 0 0 6.1-9.798A22.62 22.62 0 0 1 16.598 0a6.797 6.797 0 0 0 9.611 2.71A6.797 6.797 0 0 0 28.715 0a22.62 22.62 0 0 1 9.365 5.242 6.797 6.797 0 0 0 6.195 9.798c.69 2.2 1.04 4.492 1.038 6.797 0 1.564-.16 3.09-.46 4.566a6.797 6.797 0 0 0-5.87 11.144 22.65 22.65 0 0 1-9.852 6.007 6.8 6.8 0 0 0-12.95 0Z" />
        <path fill="#000000" d="M22.656 29.768a7.93 7.93 0 1 0 0-15.86 7.93 7.93 0 0 0 0 15.86Z" />
      </mask>
      <g mask="url(#maskSetting)">
        <path fill="#062648" d="M-4.537-5.347H49.84v54.375H-4.538V-5.347Z" />
      </g>
    </symbol>


    <symbol id="check" width="27" height="20" fill="none" viewBox="0 0 27 20">
      <path stroke="currentColor" stroke-linecap="round" stroke-linejoin="round" stroke-width="3"
        d="M2 10.274 9.49 18 25 2" />
    </symbol>


    <symbol id="goBack" width="17" height="24" fill="none" viewBox="0 0 17 24">
      <path fill="currentColor"
        d="M15.699 2.952c.64-.526.64-1.378 0-1.904s-1.678-.526-2.318 0l2.318 1.904Zm-13.484 7.27-1.159.952 2.318 1.904 1.16-.952-2.319-1.905Zm11.166-9.174L2.215 10.22l2.318 1.905L15.7 2.952l-2.318-1.904Z" />
      <path stroke="currentColor" stroke-linecap="round" stroke-width="3" d="M14.18 22.31 2 12.303" />
    </symbol>


    <symbol id="navPerson" width="39" height="41" fill="none" viewBox="0 0 39 41">
      <g filter="url(#filterNavPersonHead)">
        <path fill="currentColor" fill-rule="evenodd"
          d="M38.504 41c.032-.404.048-.812.048-1.224 0-9.463-8.63-17.134-19.276-17.134C8.63 22.642 0 30.313 0 39.776c0 .412.016.82.048 1.224h38.456Z"
          clip-rule="evenodd" />
      </g>
      <g filter="url(#filterNavPersonBody)">
        <circle cx="19.276" cy="10.25" r="10.25" fill="currentColor" />
      </g>
      <defs>
        <filter id="filterNavPersonHead" width="40.552" height="20.358" x="0" y="22.642"
          color-interpolation-filters="sRGB" filterUnits="userSpaceOnUse">
          <feFlood flood-opacity="0" result="BackgroundImageFix" />
          <feBlend in="SourceGraphic" in2="BackgroundImageFix" result="shape" />
          <feColorMatrix in="SourceAlpha" result="hardAlpha"
            values="0 0 0 0 0 0 0 0 0 0 0 0 0 0 0 0 0 0 127 0" />
          <feOffset dx="2" dy="2" />
          <feGaussianBlur stdDeviation="1" />
          <feComposite in2="hardAlpha" k2="-1" k3="1" operator="arithmetic" />
          <feColorMatrix values="0 0 0 0 0 0 0 0 0 0 0 0 0 0 0 0 0 0 0.13 0" />
          <feBlend in2="shape" result="effect1_innerShadow_363_824" />
        </filter>
        <filter id="filterNavPersonBody" width="22.5" height="22.5" x="9.025" y="0"
          color-interpolation-filters="sRGB" filterUnits="userSpaceOnUse">
          <feFlood flood-opacity="0" result="BackgroundImageFix" />
          <feBlend in="SourceGraphic" in2="BackgroundImageFix" result="shape" />
          <feColorMatrix in="SourceAlpha" result="hardAlpha"
            values="0 0 0 0 0 0 0 0 0 0 0 0 0 0 0 0 0 0 127 0" />
          <feOffset dx="2" dy="2" />
          <feGaussianBlur stdDeviation="1" />
          <feComposite in2="hardAlpha" k2="-1" k3="1" operator="arithmetic" />
          <feColorMatrix values="0 0 0 0 0 0 0 0 0 0 0 0 0 0 0 0 0 0 0.13 0" />
          <feBlend in2="shape" result="effect1_innerShadow_363_824" />
        </filter>
      </defs>
    </symbol>


    <symbol id="shell_angry" width="33" height="33" fill="none" viewBox="0 0 33 33">
      <path fill="#FFA2A2"
        d="M21.599 32.104C19.932 34.4 18 31.758 18 30.025c-7.401 0-11.479-.866-12.85-1.559C2.583 27.427.013 24.83 1.555 22.75c-3.084-4.157-.856-6.755.514-7.795C.835 10.798 3.953 8.2 5.666 7.68c1.233-4.988 5.825-5.023 7.71-4.677C14.916-.634 18.171.232 19.542.925c2.878-2.079 5.653-.173 6.681 1.04 6.168-.52 5.424 10.05 4.626 12.47-.514 1.56-1.028 3.638-1.028 4.678.857 0 2.502.383 3.084 1.559.514 1.039-1.2 2.251-2.056 2.598-5.08 3.082-7.315 6.163-9.186 8.743l-.065.09Z" />
      <path stroke="#FA8E8E" stroke-linecap="round" stroke-opacity=".4" stroke-width="1.807"
        d="M27.766 18.073c.514-1.385 1.44-5.196 1.028-9.353m-3.598 10.393c-.171-3.118-1.028-10.186-3.084-13.511m.783 14.625c-1.2-3.29-3.455-10.156-5.922-13.066m3.822 14.734c-3.05-2.485-8.78-7.916-10.504-11.097m8.554 13.069c-2.57-.867-8.553-3.611-12.665-7.353m11.466 9.93c-1.714 0-7.046-1.2-11.98-3.694" />
      <path stroke="#000" stroke-linecap="round" stroke-width="1.15"
        d="M18.245 13.404c0-.455 0-1.214.45-1.972m-4.649 5.308c-.45 0-1.35 0-1.95.151m4.2.607c.3-.708.75-1.517 2.1-1.82" />
    </symbol>


    <symbol id="shell_glad" width="33" height="33" fill="none" viewBox="0 0 33 33">
      <path fill="#FFC2DE"
        d="M21.599 32.104C19.932 34.4 18 31.758 18 30.025c-7.401 0-11.479-.866-12.85-1.559C2.583 27.427.013 24.83 1.555 22.75c-3.084-4.157-.856-6.755.514-7.795C.835 10.798 3.953 8.2 5.666 7.68c1.233-4.988 5.825-5.023 7.71-4.677C14.916-.634 18.171.232 19.542.925c2.878-2.079 5.653-.173 6.681 1.04 6.168-.52 5.424 10.05 4.626 12.47-.514 1.56-1.028 3.638-1.028 4.678.857 0 2.502.383 3.084 1.559.514 1.039-1.2 2.251-2.056 2.598-5.08 3.082-7.315 6.163-9.186 8.743l-.065.09Z" />
      <path stroke="#FF9FC9" stroke-linecap="round" stroke-opacity=".7" stroke-width="1.807"
        d="M27.696 18.135c.536-1.41 1.5-5.285 1.072-9.513M25.34 19.027c-.18-3.087-1.081-10.085-3.242-13.378m.884 14.567c-1.193-3.294-3.438-10.168-5.893-13.08M20.92 22c-3.082-2.53-8.868-8.059-10.607-11.297m8.544 13.081c-2.57-.84-8.556-3.504-12.67-7.135m11.492 9.811c-1.728 0-7.105-1.16-12.08-3.568" />
      <path stroke="#000" stroke-linecap="round" stroke-width="1.15"
        d="M14.27 14.999c.644.2 1.933.18 1.933-1.5" />
      <path stroke="#FF83B7" stroke-linecap="round" stroke-opacity=".7" stroke-width="1.807"
        d="M17.54 12.449c.447-.15 1.041-.6 1.338-1.2m-7.135 6c.446-.15 1.19-.75 1.338-1.2" />
      <ellipse cx="1.056" cy=".84" fill="#000" rx="1.056" ry=".84"
        transform="matrix(.38123 .92448 -.92203 .3871 17.21 10.138)" />
      <ellipse cx="1.053" cy=".842" fill="#000" rx="1.053" ry=".842"
        transform="matrix(.65058 .75943 -.75363 .6573 12.03 13.986)" />
    </symbol>


    <symbol id="shell_happy" width="33" height="33" fill="none" viewBox="0 0 33 33">
      <path fill="#FFD160"
        d="M21.599 32.104C19.932 34.4 18 31.758 18 30.025c-7.401 0-11.479-.866-12.85-1.559C2.583 27.427.013 24.83 1.555 22.75c-3.084-4.157-.856-6.755.514-7.795C.835 10.798 3.953 8.2 5.666 7.68c1.233-4.988 5.825-5.023 7.71-4.677C14.916-.634 18.171.232 19.542.925c2.878-2.079 5.653-.173 6.681 1.04 6.168-.52 5.424 10.05 4.626 12.47-.514 1.56-1.028 3.638-1.028 4.678.857 0 2.502.383 3.084 1.559.514 1.039-1.2 2.251-2.056 2.598-5.08 3.082-7.315 6.163-9.186 8.743l-.065.09Z" />
      <path stroke="#FFBF24" stroke-linecap="round" stroke-opacity=".7" stroke-width="1.807"
        d="M27.696 18.135c.536-1.41 1.5-5.285 1.072-9.513M25.34 19.027c-.18-3.087-1.081-10.085-3.242-13.378m.884 14.567c-1.193-3.294-3.438-10.168-5.893-13.08M20.92 22c-3.082-2.53-8.868-8.059-10.608-11.297m8.545 13.081c-2.57-.84-8.556-3.504-12.67-7.135m11.492 9.811c-1.728 0-7.105-1.16-12.08-3.568" />
      <path stroke="#000" stroke-linecap="round" stroke-width="1.478"
        d="M15.757 16.499c1.04 0 2.527-.75 2.676-2.4" />
      <ellipse cx="1.056" cy=".84" fill="#000" rx="1.056" ry=".84"
        transform="matrix(.38123 .92448 -.92203 .3871 19.089 10.2)" />
      <ellipse cx="1.053" cy=".842" fill="#000" rx="1.053" ry=".842"
        transform="matrix(.65058 .75943 -.75363 .6573 12.566 15.299)" />
    </symbol>


    <symbol id="shell_panic" width="33" height="33" fill="none" viewBox="0 0 33 33">
      <path fill="#A6E076"
        d="M21.599 32.104C19.932 34.4 18 31.758 18 30.025c-7.401 0-11.479-.866-12.85-1.559C2.583 27.427.013 24.83 1.555 22.75c-3.084-4.157-.856-6.755.514-7.795C.835 10.798 3.953 8.2 5.666 7.68c1.233-4.988 5.825-5.023 7.71-4.677C14.916-.634 18.171.232 19.542.925c2.878-2.079 5.653-.173 6.681 1.04 6.168-.52 5.424 10.05 4.626 12.47-.514 1.56-1.028 3.638-1.028 4.678.857 0 2.502.383 3.084 1.559.514 1.039-1.2 2.251-2.056 2.598-5.08 3.082-7.315 6.163-9.186 8.743l-.065.09Z" />
      <path stroke="#82D25C" stroke-linecap="round" stroke-opacity=".7" stroke-width="1.807"
        d="M27.696 18.135c.536-1.41 1.5-5.285 1.072-9.513M25.34 19.027c-.18-3.087-1.081-10.085-3.242-13.378m.884 14.567c-1.193-3.294-3.438-10.168-5.893-13.08M20.92 22c-3.082-2.53-8.868-8.059-10.608-11.297m8.545 13.081c-2.57-.84-8.556-3.504-12.67-7.135m11.491 9.811c-1.727 0-7.104-1.16-12.08-3.568" />
      <ellipse cx="2.384" cy="2.172" fill="#fff" rx="2.384" ry="2.172"
        transform="rotate(83.248 4.548 16.502) skewX(.121)" />
      <ellipse cx="2.387" cy="2.156" fill="#fff" rx="2.387" ry="2.156"
        transform="scale(.9955 1.00447) rotate(45 -7.88 22.78)" />
      <ellipse cx="1.018" cy=".858" fill="#000" rx="1.018" ry=".858"
        transform="matrix(.30895 .95108 -.94943 .314 18.575 11.699)" />
      <ellipse cx="1.012" cy=".864" fill="#000" rx="1.012" ry=".864"
        transform="matrix(.65058 .75943 -.75363 .6573 14.087 14.099)" />
      <path stroke="#000" stroke-linecap="round" stroke-width="1.314"
        d="M16.351 18.299c.05-.4.208-.93 1.04-1.05.833-.12 1.041-.9 1.041-.9.298-.9 1.338-.75 1.487-.75" />
      <path fill="#fff"
        d="M24.973 7.529c.323.952-.644 1.458-1.214 1.23-1.13-.518-1.088-1.965-.654-2.965.084-.215.065.068.657.694.657.695 1.103.724 1.21 1.041Zm2.256.193c-.262-.212-1.152-.708-1.448-1.117-.168.478-.326 1.756.56 2.087.944.353 1.282-.652.888-.97Z" />
    </symbol>


    <symbol id="shell_anxiety" width="33" height="33" fill="none" viewBox="0 0 33 33">
      <path fill="#A9EBF7"
        d="M21.599 32.104C19.932 34.4 18 31.758 18 30.025c-7.401 0-11.479-.866-12.85-1.559C2.583 27.427.013 24.83 1.555 22.75c-3.084-4.157-.856-6.755.514-7.795C.835 10.798 3.953 8.2 5.666 7.68c1.233-4.988 5.825-5.023 7.71-4.677C14.916-.634 18.171.232 19.542.925c2.878-2.079 5.653-.173 6.681 1.04 6.168-.52 5.424 10.05 4.626 12.47-.514 1.56-1.028 3.638-1.028 4.678.857 0 2.502.383 3.084 1.559.514 1.039-1.2 2.251-2.056 2.598-5.08 3.082-7.315 6.163-9.186 8.743l-.065.09Z" />
      <path stroke="#75DEF9" stroke-linecap="round" stroke-opacity=".7" stroke-width="1.807"
        d="M27.696 18.135c.536-1.41 1.5-5.285 1.072-9.513M25.34 19.027c-.18-3.087-1.081-10.085-3.242-13.378m.884 14.567c-1.193-3.294-3.438-10.168-5.893-13.08M20.92 22c-3.082-2.53-8.868-8.059-10.608-11.297m8.545 13.081c-2.57-.84-8.556-3.504-12.67-7.135m11.492 9.811c-1.728 0-7.105-1.16-12.08-3.568" />
      <ellipse cx="1.075" cy=".855" fill="#000" rx="1.075" ry=".855"
        transform="matrix(.38123 .92448 -.92203 .3871 19.136 11.003)" />
      <ellipse cx="1.073" cy=".857" fill="#000" rx="1.073" ry=".857"
        transform="matrix(.65058 .75943 -.75363 .6573 13.402 14.974)" />
      <path stroke="#000" stroke-linecap="round" stroke-width="1.15"
        d="M16.5 14.821c.686.129 1.993 0 2.422 0m-2.573 2.291s.15-1.527 0-2.29" />
    </symbol>


    <symbol id="shell_sad" width="33" height="33" fill="none" viewBox="0 0 33 33">
      <path fill="#89CAF0"
        d="M21.599 32.104C19.932 34.4 18 31.758 18 30.025c-7.401 0-11.479-.866-12.85-1.559C2.583 27.427.013 24.83 1.555 22.75c-3.084-4.157-.856-6.755.514-7.795C.835 10.798 3.953 8.2 5.666 7.68c1.233-4.988 5.825-5.023 7.71-4.677C14.916-.634 18.171.232 19.542.925c2.878-2.079 5.653-.173 6.681 1.04 6.168-.52 5.424 10.05 4.626 12.47-.514 1.56-1.028 3.638-1.028 4.678.857 0 2.502.383 3.084 1.559.514 1.039-1.2 2.251-2.056 2.598-5.08 3.082-7.315 6.163-9.186 8.743l-.065.09Z" />
      <path stroke="#58BBF2" stroke-linecap="round" stroke-opacity=".7" stroke-width="1.807"
        d="M27.696 18.135c.536-1.41 1.5-5.285 1.072-9.513M25.34 19.027c-.18-3.087-1.081-10.085-3.242-13.378m.884 14.567c-1.193-3.294-3.438-10.168-5.893-13.08M20.92 22c-3.082-2.53-8.868-8.059-10.608-11.297m8.545 13.081c-2.57-.84-8.556-3.504-12.67-7.135m11.492 9.811c-1.728 0-7.105-1.16-12.08-3.568" />
      <path stroke="#fff" stroke-linecap="round" stroke-width="1.478"
        d="M19.225 13.136c.706.305 2.028 1.038 2.876 2.138m-9.537 2.291c.101.662.394 2.26 1.363 3.36" />
      <ellipse cx="1.075" cy=".855" fill="#000" rx="1.075" ry=".855"
        transform="matrix(.38123 .92448 -.92203 .3871 18.53 10.692)" />
      <ellipse cx="1.073" cy=".857" fill="#000" rx="1.073" ry=".857"
        transform="matrix(.65058 .75943 -.75363 .6573 12.19 14.663)" />
      <path stroke="#000" stroke-linecap="round" stroke-width="1.314"
        d="M15.289 16.038c.151-.755.757-1.68 2.27-1.68" />
      <ellipse cx="14.986" cy="22.758" fill="#fff" rx=".757" ry=".764" />
    </symbol>


    <symbol id="shell_normal" width="33" height="33" fill="none" viewBox="0 0 33 33">
      <path fill="#E2CFFF"
        d="M21.599 32.104C19.932 34.4 18 31.758 18 30.025c-7.401 0-11.479-.866-12.85-1.559C2.583 27.427.013 24.83 1.555 22.75c-3.084-4.157-.856-6.755.514-7.795C.835 10.798 3.953 8.2 5.666 7.68c1.233-4.988 5.825-5.023 7.71-4.677C14.916-.634 18.171.232 19.542.925c2.878-2.079 5.653-.173 6.681 1.04 6.168-.52 5.424 10.05 4.626 12.47-.514 1.56-1.028 3.638-1.028 4.678.857 0 2.502.383 3.084 1.559.514 1.039-1.2 2.251-2.056 2.598-5.08 3.082-7.315 6.163-9.186 8.743l-.065.09Z" />
      <path stroke="#D2B1FD" stroke-linecap="round" stroke-opacity=".7" stroke-width="1.807"
        d="M27.696 18.135c.536-1.41 1.5-5.285 1.072-9.513M25.34 19.027c-.18-3.087-1.081-10.085-3.242-13.378m.884 14.567c-1.193-3.294-3.438-10.168-5.893-13.08M20.92 22c-3.082-2.53-8.868-8.059-10.608-11.297m8.545 13.081c-2.57-.84-8.557-3.504-12.67-7.135m11.492 9.811c-1.728 0-7.105-1.16-12.08-3.568" />
      <path stroke="#000" stroke-linecap="round" stroke-width="1.478"
        d="M16.954 16.343c.575-.802 1.06-1.222 1.852-1.798" />
      <ellipse cx="1.074" cy=".856" fill="#000" rx="1.074" ry=".856"
        transform="matrix(.49152 .87086 -.86705 .49823 19.274 10.35)" />
      <ellipse cx="1.072" cy=".858" fill="#000" rx="1.072" ry=".858"
        transform="matrix(.73396 .67919 -.6726 .74 13.547 15.595)" />
    </symbol>


    <symbol id="shell_tired" width="33" height="33" fill="none" viewBox="0 0 33 33">
      <path fill="#BAADFE"
        d="M21.599 32.104C19.932 34.4 18 31.758 18 30.025c-7.401 0-11.479-.866-12.85-1.559C2.583 27.427.013 24.83 1.555 22.75c-3.084-4.157-.856-6.755.514-7.795C.835 10.798 3.953 8.2 5.666 7.68c1.233-4.988 5.825-5.023 7.71-4.677C14.916-.634 18.171.232 19.542.925c2.878-2.079 5.653-.173 6.681 1.04 6.168-.52 5.424 10.05 4.626 12.47-.514 1.56-1.028 3.638-1.028 4.678.857 0 2.502.383 3.084 1.559.514 1.039-1.2 2.251-2.056 2.598-5.08 3.082-7.315 6.163-9.186 8.743l-.065.09Z" />
      <path stroke="#A08FF6" stroke-linecap="round" stroke-opacity=".7" stroke-width="1.807"
        d="M27.697 18.135c.535-1.41 1.5-5.285 1.071-9.513M25.34 19.027c-.18-3.087-1.081-10.085-3.242-13.378m.884 14.567c-1.193-3.294-3.438-10.168-5.893-13.08M20.92 22c-3.082-2.53-8.868-8.059-10.607-11.297m8.544 13.081c-2.57-.84-8.556-3.504-12.67-7.135m11.492 9.811c-1.728 0-7.105-1.16-12.08-3.568" />
      <path stroke="#000" stroke-width=".986"
        d="M17.89 16.487c-.402.284-.813.43-1.137.458-.337.028-.482-.073-.53-.142-.048-.069-.092-.24.049-.55.135-.299.412-.639.813-.923.401-.284.813-.43 1.136-.457.338-.028.482.072.53.141.048.07.093.24-.049.551-.135.298-.411.638-.813.922Z" />
      <ellipse cx="1.504" cy="1.149" fill="#9590B6" rx="1.504" ry="1.149"
        transform="scale(.9955 1.00447) rotate(-45 27.368 -6.168)" />
      <ellipse cx="1.502" cy="1.15" fill="#9590B6" rx="1.502" ry="1.15"
        transform="matrix(.77916 -.62683 .62 .7846 17.862 13.186)" />
      <path stroke="#000" stroke-linecap="round" stroke-width="1.314"
        d="M13.624 16.602a5.29 5.29 0 0 1 .499-1.289m4.043-2.586c.3-.045.748-.112 1.37-.051" />
    </symbol>


    <symbol id="shell_angry_block" width="33" height="33" fill="none" viewBox="0 0 33 33">
      <path fill="#FFA2A2" fill-opacity=".4"
        d="M21.599 32.104C19.932 34.4 18 31.758 18 30.025c-7.401 0-11.479-.866-12.85-1.559C2.583 27.427.013 24.83 1.555 22.75c-3.084-4.157-.856-6.755.514-7.795C.835 10.798 3.953 8.2 5.666 7.68c1.233-4.988 5.825-5.023 7.71-4.677C14.916-.634 18.171.232 19.542.925c2.878-2.079 5.653-.173 6.681 1.04 6.168-.52 5.424 10.05 4.626 12.47-.514 1.56-1.028 3.638-1.028 4.678.857 0 2.502.383 3.084 1.559.514 1.039-1.2 2.251-2.056 2.598-5.08 3.082-7.315 6.163-9.186 8.743l-.065.09Z" />
      <path stroke="#FA8E8E" stroke-linecap="round" stroke-opacity=".2" stroke-width="1.807"
        d="M27.766 18.073c.514-1.385 1.44-5.196 1.028-9.353m-3.598 10.393c-.171-3.118-1.028-10.186-3.084-13.511m.783 14.625c-1.2-3.29-3.455-10.156-5.922-13.066m3.822 14.734c-3.05-2.485-8.78-7.916-10.504-11.097m8.554 13.069c-2.57-.867-8.553-3.611-12.665-7.353m11.466 9.93c-1.714 0-7.046-1.2-11.98-3.694" />
      <path stroke="#000" stroke-linecap="round" stroke-opacity=".4" stroke-width="1.15"
        d="M18.245 13.404c0-.455 0-1.214.45-1.972m-4.649 5.308c-.45 0-1.35 0-1.95.151m4.2.607c.3-.708.75-1.517 2.1-1.82" />
    </symbol>


    <symbol id="shell_glad_block" width="33" height="33" fill="none" viewBox="0 0 33 33">
      <path fill="#FFC2DE" fill-opacity=".4"
        d="M21.599 32.104C19.932 34.4 18 31.758 18 30.025c-7.401 0-11.479-.866-12.85-1.559C2.583 27.427.013 24.83 1.555 22.75c-3.084-4.157-.856-6.755.514-7.795C.835 10.798 3.953 8.2 5.666 7.68c1.233-4.988 5.825-5.023 7.71-4.677C14.916-.634 18.171.232 19.542.925c2.878-2.079 5.653-.173 6.681 1.04 6.168-.52 5.424 10.05 4.626 12.47-.514 1.56-1.028 3.638-1.028 4.678.857 0 2.502.383 3.084 1.559.514 1.039-1.2 2.251-2.056 2.598-5.08 3.082-7.315 6.163-9.186 8.743l-.065.09Z" />
      <path stroke="#FF9FC9" stroke-linecap="round" stroke-opacity=".2" stroke-width="1.807"
        d="M27.696 18.135c.536-1.41 1.5-5.285 1.072-9.513M25.34 19.027c-.18-3.087-1.081-10.085-3.242-13.378m.884 14.567c-1.193-3.295-3.438-10.168-5.893-13.08M20.92 22c-3.082-2.53-8.868-8.059-10.607-11.297m8.544 13.081c-2.57-.84-8.556-3.504-12.67-7.135m11.492 9.811c-1.728 0-7.105-1.16-12.08-3.568" />
      <path stroke="#000" stroke-linecap="round" stroke-opacity=".4" stroke-width="1.15"
        d="M14.27 14.999c.644.2 1.933.18 1.933-1.5" />
      <path stroke="#FF83B7" stroke-linecap="round" stroke-opacity=".4" stroke-width="1.807"
        d="M17.54 12.449c.447-.15 1.041-.6 1.338-1.2m-7.135 6c.446-.15 1.19-.75 1.338-1.2" />
      <ellipse cx="1.056" cy=".839" fill="#000" fill-opacity=".4" rx="1.056" ry=".839"
        transform="matrix(.38123 .92448 -.92203 .3871 17.21 10.138)" />
      <ellipse cx="1.053" cy=".842" fill="#000" fill-opacity=".4" rx="1.053" ry=".842"
        transform="matrix(.65058 .75943 -.75363 .6573 12.03 13.986)" />
    </symbol>


    <symbol id="shell_happy_block" width="33" height="33" fill="none" viewBox="0 0 33 33">
      <path fill="#FFD160" fill-opacity=".4"
        d="M21.599 32.104C19.932 34.4 18 31.758 18 30.025c-7.401 0-11.479-.866-12.85-1.559C2.583 27.427.013 24.83 1.555 22.75c-3.084-4.157-.856-6.755.514-7.795C.835 10.798 3.953 8.2 5.666 7.68c1.233-4.988 5.825-5.023 7.71-4.677C14.916-.634 18.171.232 19.542.925c2.878-2.079 5.653-.173 6.681 1.04 6.168-.52 5.424 10.05 4.626 12.47-.514 1.56-1.028 3.638-1.028 4.678.857 0 2.502.383 3.084 1.559.514 1.039-1.2 2.251-2.056 2.598-5.08 3.082-7.315 6.163-9.186 8.743l-.065.09Z" />
      <path stroke="#FFBF24" stroke-linecap="round" stroke-opacity=".2" stroke-width="1.807"
        d="M27.696 18.135c.536-1.41 1.5-5.285 1.072-9.513M25.34 19.027c-.18-3.087-1.081-10.085-3.242-13.378m.884 14.567c-1.193-3.295-3.438-10.168-5.893-13.08M20.92 22c-3.082-2.53-8.868-8.059-10.608-11.297m8.545 13.081c-2.57-.84-8.556-3.504-12.67-7.135m11.492 9.811c-1.728 0-7.105-1.16-12.08-3.568" />
      <path stroke="#000" stroke-linecap="round" stroke-opacity=".4" stroke-width="1.478"
        d="M15.757 16.499c1.04 0 2.527-.75 2.676-2.4" />
      <ellipse cx="1.056" cy=".839" fill="#000" fill-opacity=".4" rx="1.056" ry=".839"
        transform="matrix(.38123 .92448 -.92203 .3871 19.089 10.2)" />
      <ellipse cx="1.053" cy=".842" fill="#000" fill-opacity=".4" rx="1.053" ry=".842"
        transform="matrix(.65058 .75943 -.75363 .6573 12.566 15.299)" />
    </symbol>


    <symbol id="shell_panic_block" width="33" height="33" fill="none" viewBox="0 0 33 33">
      <path fill="#A6E076" fill-opacity=".4"
        d="M21.599 32.104C19.932 34.4 18 31.758 18 30.025c-7.401 0-11.479-.866-12.85-1.559C2.583 27.427.013 24.83 1.555 22.75c-3.084-4.157-.856-6.755.514-7.795C.835 10.798 3.953 8.2 5.666 7.68c1.233-4.988 5.825-5.023 7.71-4.677C14.916-.634 18.171.232 19.542.925c2.878-2.079 5.653-.173 6.681 1.04 6.168-.52 5.424 10.05 4.626 12.47-.514 1.56-1.028 3.638-1.028 4.678.857 0 2.502.383 3.084 1.559.514 1.039-1.2 2.251-2.056 2.598-5.08 3.082-7.315 6.163-9.186 8.743l-.065.09Z" />
      <path stroke="#82D25C" stroke-linecap="round" stroke-opacity=".2" stroke-width="1.807"
        d="M27.696 18.135c.536-1.41 1.5-5.285 1.072-9.513M25.34 19.027c-.18-3.087-1.081-10.085-3.242-13.378m.884 14.567c-1.193-3.295-3.438-10.168-5.893-13.08M20.92 22c-3.082-2.53-8.868-8.059-10.608-11.297m8.545 13.081c-2.57-.84-8.556-3.504-12.67-7.135m11.491 9.811c-1.727 0-7.104-1.16-12.08-3.568" />
      <ellipse cx="2.384" cy="2.172" fill="#fff" fill-opacity=".4" rx="2.384" ry="2.172"
        transform="rotate(83.248 4.548 16.502) skewX(.121)" />
      <ellipse cx="2.386" cy="2.156" fill="#fff" fill-opacity=".4" rx="2.386" ry="2.156"
        transform="scale(.9955 1.00447) rotate(45 -7.88 22.78)" />
      <ellipse cx="1.018" cy=".858" fill="#000" fill-opacity=".4" rx="1.018" ry=".858"
        transform="matrix(.30895 .95108 -.94943 .314 18.575 11.699)" />
      <ellipse cx="1.012" cy=".864" fill="#000" fill-opacity=".4" rx="1.012" ry=".864"
        transform="matrix(.65058 .75943 -.75363 .6573 14.087 14.099)" />
      <path stroke="#000" stroke-linecap="round" stroke-opacity=".4" stroke-width="1.314"
        d="M16.351 18.299c.05-.4.208-.93 1.04-1.05.833-.12 1.041-.9 1.041-.9.298-.9 1.338-.75 1.487-.75" />
      <path fill="#fff" fill-opacity=".4"
        d="M24.973 7.529c.323.952-.644 1.458-1.214 1.229-1.13-.517-1.088-1.964-.654-2.964.084-.215.065.068.657.694.657.695 1.103.724 1.21 1.04Zm2.256.193c-.262-.212-1.152-.708-1.448-1.117-.168.478-.326 1.756.56 2.087.944.352 1.282-.652.888-.97Z" />
    </symbol>


    <symbol id="shell_anxiety_block" width="33" height="33" fill="none" viewBox="0 0 33 33">
      <path fill="#A9EBF7" fill-opacity=".4"
        d="M21.599 32.104C19.932 34.4 18 31.758 18 30.025c-7.401 0-11.479-.866-12.85-1.559C2.583 27.427.013 24.83 1.555 22.75c-3.084-4.157-.856-6.755.514-7.795C.835 10.798 3.953 8.2 5.666 7.68c1.233-4.988 5.825-5.023 7.71-4.677C14.916-.634 18.171.232 19.542.925c2.878-2.079 5.653-.173 6.681 1.04 6.168-.52 5.424 10.05 4.626 12.47-.514 1.56-1.028 3.638-1.028 4.678.857 0 2.502.383 3.084 1.559.514 1.039-1.2 2.251-2.056 2.598-5.08 3.082-7.315 6.163-9.186 8.743l-.065.09Z" />
      <path stroke="#75DEF9" stroke-linecap="round" stroke-opacity=".2" stroke-width="1.807"
        d="M27.696 18.135c.536-1.41 1.5-5.285 1.072-9.513M25.34 19.027c-.18-3.087-1.081-10.085-3.242-13.378m.884 14.567c-1.193-3.294-3.438-10.168-5.893-13.08M20.92 22c-3.082-2.53-8.868-8.059-10.608-11.297m8.545 13.081c-2.57-.84-8.556-3.504-12.67-7.135m11.492 9.811c-1.728 0-7.105-1.16-12.08-3.568" />
      <ellipse cx="1.075" cy=".855" fill="#000" fill-opacity=".4" rx="1.075" ry=".855"
        transform="matrix(.38123 .92448 -.92203 .3871 19.136 11.003)" />
      <ellipse cx="1.073" cy=".857" fill="#000" fill-opacity=".4" rx="1.073" ry=".857"
        transform="matrix(.65058 .75943 -.75363 .6573 13.402 14.974)" />
      <path stroke="#000" stroke-linecap="round" stroke-opacity=".4" stroke-width="1.15"
        d="M16.5 14.821c.686.129 1.993 0 2.422 0m-2.573 2.291s.15-1.527 0-2.29" />
    </symbol>


    <symbol id="shell_sad_block" width="33" height="33" fill="none" viewBox="0 0 33 33">
      <path fill="#89CAF0" fill-opacity=".4"
        d="M21.599 32.104C19.932 34.4 18 31.758 18 30.025c-7.401 0-11.479-.866-12.85-1.559C2.583 27.427.013 24.83 1.555 22.75c-3.084-4.157-.856-6.755.514-7.795C.835 10.798 3.953 8.2 5.666 7.68c1.233-4.988 5.825-5.023 7.71-4.677C14.916-.634 18.171.232 19.542.925c2.878-2.079 5.653-.173 6.681 1.04 6.168-.52 5.424 10.05 4.626 12.47-.514 1.56-1.028 3.638-1.028 4.678.857 0 2.502.383 3.084 1.559.514 1.039-1.2 2.251-2.056 2.598-5.08 3.082-7.315 6.163-9.186 8.743l-.065.09Z" />
      <path stroke="#58BBF2" stroke-linecap="round" stroke-opacity=".2" stroke-width="1.807"
        d="M27.696 18.135c.536-1.41 1.5-5.285 1.072-9.513M25.34 19.027c-.18-3.087-1.081-10.085-3.242-13.378m.884 14.567c-1.193-3.294-3.438-10.168-5.893-13.08M20.92 22c-3.082-2.53-8.868-8.059-10.608-11.297m8.545 13.081c-2.57-.84-8.556-3.504-12.67-7.135m11.492 9.811c-1.728 0-7.105-1.16-12.08-3.568" />
      <path stroke="#fff" stroke-linecap="round" stroke-opacity=".4" stroke-width="1.478"
        d="M19.225 13.136c.706.305 2.028 1.038 2.876 2.138m-9.537 2.291c.101.662.394 2.26 1.363 3.36" />
      <ellipse cx="1.075" cy=".855" fill="#000" fill-opacity=".4" rx="1.075" ry=".855"
        transform="matrix(.38123 .92448 -.92203 .3871 18.53 10.692)" />
      <ellipse cx="1.073" cy=".857" fill="#000" fill-opacity=".4" rx="1.073" ry=".857"
        transform="matrix(.65058 .75943 -.75363 .6573 12.19 14.663)" />
      <path stroke="#000" stroke-linecap="round" stroke-opacity=".4" stroke-width="1.314"
        d="M15.289 16.038c.151-.755.757-1.68 2.27-1.68" />
      <ellipse cx="14.986" cy="22.758" fill="#fff" fill-opacity=".4" rx=".757" ry=".764" />
    </symbol>


    <symbol id="shell_normal_block" width="33" height="33" fill="none" viewBox="0 0 33 33">
      <path fill="#E2CFFF" fill-opacity=".4"
        d="M21.599 32.104C19.932 34.4 18 31.758 18 30.025c-7.401 0-11.479-.866-12.85-1.559C2.583 27.427.013 24.83 1.555 22.75c-3.084-4.157-.856-6.755.514-7.795C.835 10.798 3.953 8.2 5.666 7.68c1.233-4.988 5.825-5.023 7.71-4.677C14.916-.634 18.171.232 19.542.925c2.878-2.079 5.653-.173 6.681 1.04 6.168-.52 5.424 10.05 4.626 12.47-.514 1.56-1.028 3.638-1.028 4.678.857 0 2.502.383 3.084 1.559.514 1.039-1.2 2.251-2.056 2.598-5.08 3.082-7.315 6.163-9.186 8.743l-.065.09Z" />
      <path stroke="#D2B1FD" stroke-linecap="round" stroke-opacity=".2" stroke-width="1.807"
        d="M27.696 18.135c.536-1.41 1.5-5.285 1.072-9.513M25.34 19.027c-.18-3.087-1.081-10.085-3.242-13.378m.884 14.567c-1.193-3.294-3.438-10.168-5.893-13.08M20.92 22c-3.082-2.53-8.868-8.059-10.608-11.297m8.545 13.081c-2.57-.84-8.557-3.504-12.67-7.135m11.491 9.811c-1.727 0-7.104-1.16-12.08-3.568" />
      <path stroke="#000" stroke-linecap="round" stroke-opacity=".4" stroke-width="1.478"
        d="M16.954 16.343c.575-.802 1.06-1.222 1.852-1.798" />
      <ellipse cx="1.074" cy=".856" fill="#000" fill-opacity=".4" rx="1.074" ry=".856"
        transform="matrix(.49152 .87086 -.86705 .49823 19.274 10.35)" />
      <ellipse cx="1.072" cy=".858" fill="#000" fill-opacity=".4" rx="1.072" ry=".858"
        transform="matrix(.73396 .67919 -.6726 .74 13.547 15.595)" />
    </symbol>


    <symbol id="shell_tired_block" width="33" height="33" fill="none" viewBox="0 0 33 33">
      <path fill="#BAADFE" fill-opacity=".4"
        d="M21.599 32.104C19.932 34.4 18 31.758 18 30.025c-7.401 0-11.479-.866-12.85-1.559C2.583 27.427.013 24.83 1.555 22.75c-3.084-4.157-.856-6.755.514-7.795C.835 10.798 3.953 8.2 5.666 7.68c1.233-4.988 5.825-5.023 7.71-4.677C14.916-.634 18.171.232 19.542.925c2.878-2.079 5.653-.173 6.681 1.04 6.168-.52 5.424 10.05 4.626 12.47-.514 1.56-1.028 3.638-1.028 4.678.857 0 2.502.383 3.084 1.559.514 1.039-1.2 2.251-2.056 2.598-5.08 3.082-7.315 6.163-9.186 8.743l-.065.09Z" />
      <path stroke="#A08FF6" stroke-linecap="round" stroke-opacity=".2" stroke-width="1.807"
        d="M27.697 18.135c.535-1.41 1.5-5.285 1.071-9.513M25.34 19.027c-.18-3.087-1.081-10.085-3.242-13.378m.884 14.567c-1.193-3.294-3.438-10.168-5.893-13.08M20.92 22c-3.082-2.53-8.868-8.059-10.607-11.297m8.544 13.081c-2.57-.84-8.556-3.504-12.67-7.135m11.492 9.811c-1.728 0-7.105-1.16-12.08-3.568" />
      <path stroke="#000" stroke-opacity=".4" stroke-width=".986"
        d="M17.89 16.487c-.402.284-.813.43-1.137.458-.337.028-.482-.073-.53-.142-.048-.069-.092-.24.049-.55.135-.299.412-.639.813-.923.401-.284.813-.43 1.136-.457.338-.028.482.072.53.141.048.07.093.24-.049.551-.135.298-.411.638-.813.922Z" />
      <ellipse cx="1.504" cy="1.149" fill="#9590B6" fill-opacity=".4" rx="1.504" ry="1.149"
        transform="scale(.9955 1.00447) rotate(-45 27.368 -6.168)" />
      <ellipse cx="1.502" cy="1.15" fill="#9590B6" fill-opacity=".4" rx="1.502" ry="1.15"
        transform="matrix(.77916 -.62683 .62 .7846 17.862 13.186)" />
      <path stroke="#000" stroke-linecap="round" stroke-opacity=".4" stroke-width="1.314"
        d="M13.624 16.602a5.29 5.29 0 0 1 .499-1.289m4.043-2.586c.3-.045.748-.112 1.37-.051" />
    </symbol>


    <symbol id="shell_angry_hovered" width="33" height="33" fill="none" viewBox="0 0 33 33">
      <path fill="#FFA2A2"
        d="M21.599 32.104C19.932 34.4 18 31.758 18 30.025c-7.401 0-11.479-.866-12.85-1.559C2.583 27.427.013 24.83 1.555 22.75c-3.084-4.157-.856-6.755.514-7.795C.835 10.798 3.953 8.2 5.666 7.68c1.233-4.988 5.825-5.023 7.71-4.677C14.916-.634 18.171.232 19.542.925c2.878-2.079 5.653-.173 6.681 1.04 6.168-.52 5.424 10.05 4.626 12.47-.514 1.56-1.028 3.638-1.028 4.678.857 0 2.502.383 3.084 1.559.514 1.039-1.2 2.251-2.056 2.598-5.08 3.082-7.315 6.163-9.186 8.743l-.065.09Z" />
      <path stroke="#FA8E8E" stroke-linecap="round" stroke-opacity=".4" stroke-width="1.807"
        d="M27.766 18.073c.514-1.385 1.44-5.196 1.028-9.353m-3.598 10.393c-.171-3.118-1.028-10.186-3.084-13.511m.783 14.625c-1.2-3.29-3.455-10.156-5.922-13.066m3.822 14.734c-3.05-2.485-8.78-7.916-10.504-11.097m8.554 13.069c-2.57-.867-8.553-3.611-12.665-7.353m11.466 9.93c-1.714 0-7.046-1.2-11.98-3.694" />
      <path stroke="#000" stroke-linecap="round" stroke-width="1.15"
        d="M18.245 13.404c0-.455 0-1.214.45-1.972m-4.649 5.308c-.45 0-1.35 0-1.95.151m4.2.607c.3-.708.75-1.517 2.1-1.82" />
      <path fill="#000" fill-opacity=".4"
        d="M21.599 32.104C19.932 34.4 18 31.758 18 30.025c-7.401 0-11.479-.866-12.85-1.559C2.583 27.427.013 24.83 1.555 22.75c-3.084-4.157-.856-6.755.514-7.795C.835 10.798 3.953 8.2 5.666 7.68c1.233-4.988 5.825-5.023 7.71-4.677C14.916-.634 18.171.232 19.542.925c2.878-2.079 5.653-.173 6.681 1.04 6.168-.52 5.424 10.05 4.626 12.47-.514 1.56-1.028 3.638-1.028 4.678.857 0 2.502.383 3.084 1.559.514 1.039-1.2 2.251-2.056 2.598-5.08 3.082-7.315 6.163-9.186 8.743l-.065.09Z" />
    </symbol>


    <symbol id="shell_glad_hovered" width="33" height="33" fill="none" viewBox="0 0 33 33">
      <path fill="#FFC2DE"
        d="M21.599 32.104C19.932 34.4 18 31.758 18 30.025c-7.401 0-11.479-.866-12.85-1.559C2.583 27.427.013 24.83 1.555 22.75c-3.084-4.157-.856-6.755.514-7.795C.835 10.798 3.953 8.2 5.666 7.68c1.233-4.988 5.825-5.023 7.71-4.677C14.916-.634 18.171.232 19.542.925c2.878-2.079 5.653-.173 6.681 1.04 6.168-.52 5.424 10.05 4.626 12.47-.514 1.56-1.028 3.638-1.028 4.678.857 0 2.502.383 3.084 1.559.514 1.039-1.2 2.251-2.056 2.598-5.08 3.082-7.315 6.163-9.186 8.743l-.065.09Z" />
      <path stroke="#FF9FC9" stroke-linecap="round" stroke-opacity=".7" stroke-width="1.807"
        d="M27.696 18.135c.536-1.41 1.5-5.285 1.072-9.513M25.34 19.027c-.18-3.087-1.081-10.085-3.242-13.378m.884 14.567c-1.193-3.294-3.438-10.168-5.893-13.08M20.92 22c-3.082-2.53-8.868-8.059-10.607-11.297m8.544 13.081c-2.57-.84-8.556-3.504-12.67-7.135m11.492 9.811c-1.728 0-7.105-1.16-12.08-3.568" />
      <path stroke="#000" stroke-linecap="round" stroke-width="1.15"
        d="M14.27 14.999c.644.2 1.933.18 1.933-1.5" />
      <path stroke="#FF83B7" stroke-linecap="round" stroke-opacity=".7" stroke-width="1.807"
        d="M17.54 12.449c.447-.15 1.041-.6 1.338-1.2m-7.135 6c.446-.15 1.19-.75 1.338-1.2" />
      <ellipse cx="1.056" cy=".84" fill="#000" rx="1.056" ry=".84"
        transform="matrix(.38123 .92448 -.92203 .3871 17.21 10.138)" />
      <ellipse cx="1.053" cy=".842" fill="#000" rx="1.053" ry=".842"
        transform="matrix(.65058 .75943 -.75363 .6573 12.03 13.986)" />
      <path fill="#000" fill-opacity=".4"
        d="M21.599 32.104C19.932 34.4 18 31.758 18 30.025c-7.401 0-11.479-.866-12.85-1.559C2.583 27.427.013 24.83 1.555 22.75c-3.084-4.157-.856-6.755.514-7.795C.835 10.798 3.953 8.2 5.666 7.68c1.233-4.988 5.825-5.023 7.71-4.677C14.916-.634 18.171.232 19.542.925c2.878-2.079 5.653-.173 6.681 1.04 6.168-.52 5.424 10.05 4.626 12.47-.514 1.56-1.028 3.638-1.028 4.678.857 0 2.502.383 3.084 1.559.514 1.039-1.2 2.251-2.056 2.598-5.08 3.082-7.315 6.163-9.186 8.743l-.065.09Z" />
    </symbol>


    <symbol id="shell_happy_hovered" width="33" height="33" fill="none" viewBox="0 0 33 33">
      <path fill="#FFD160"
        d="M21.599 32.104C19.932 34.4 18 31.758 18 30.025c-7.401 0-11.479-.866-12.85-1.559C2.583 27.427.013 24.83 1.555 22.75c-3.084-4.157-.856-6.755.514-7.795C.835 10.798 3.953 8.2 5.666 7.68c1.233-4.988 5.825-5.023 7.71-4.677C14.916-.634 18.171.232 19.542.925c2.878-2.079 5.653-.173 6.681 1.04 6.168-.52 5.424 10.05 4.626 12.47-.514 1.56-1.028 3.638-1.028 4.678.857 0 2.502.383 3.084 1.559.514 1.039-1.2 2.251-2.056 2.598-5.08 3.082-7.315 6.163-9.186 8.743l-.065.09Z" />
      <path stroke="#FFBF24" stroke-linecap="round" stroke-opacity=".7" stroke-width="1.807"
        d="M27.696 18.135c.536-1.41 1.5-5.285 1.072-9.513M25.34 19.027c-.18-3.087-1.081-10.085-3.242-13.378m.884 14.567c-1.193-3.294-3.438-10.168-5.893-13.08M20.92 22c-3.082-2.53-8.868-8.059-10.608-11.297m8.545 13.081c-2.57-.84-8.556-3.504-12.67-7.135m11.492 9.811c-1.728 0-7.105-1.16-12.08-3.568" />
      <path stroke="#000" stroke-linecap="round" stroke-width="1.478"
        d="M15.757 16.499c1.04 0 2.527-.75 2.676-2.4" />
      <ellipse cx="1.056" cy=".84" fill="#000" rx="1.056" ry=".84"
        transform="matrix(.38123 .92448 -.92203 .3871 19.089 10.2)" />
      <ellipse cx="1.053" cy=".842" fill="#000" rx="1.053" ry=".842"
        transform="matrix(.65058 .75943 -.75363 .6573 12.566 15.299)" />
      <path fill="#000" fill-opacity=".4"
        d="M21.599 32.104C19.932 34.4 18 31.758 18 30.025c-7.401 0-11.479-.866-12.85-1.559C2.583 27.427.013 24.83 1.555 22.75c-3.084-4.157-.856-6.755.514-7.795C.835 10.798 3.953 8.2 5.666 7.68c1.233-4.988 5.825-5.023 7.71-4.677C14.916-.634 18.171.232 19.542.925c2.878-2.079 5.653-.173 6.681 1.04 6.168-.52 5.424 10.05 4.626 12.47-.514 1.56-1.028 3.638-1.028 4.678.857 0 2.502.383 3.084 1.559.514 1.039-1.2 2.251-2.056 2.598-5.08 3.082-7.315 6.163-9.186 8.743l-.065.09Z" />
    </symbol>


    <symbol id="shell_panic_hovered" width="33" height="33" fill="none" viewBox="0 0 33 33">
      <path fill="#A6E076"
        d="M21.599 32.104C19.932 34.4 18 31.758 18 30.025c-7.401 0-11.479-.866-12.85-1.559C2.583 27.427.013 24.83 1.555 22.75c-3.084-4.157-.856-6.755.514-7.795C.835 10.798 3.953 8.2 5.666 7.68c1.233-4.988 5.825-5.023 7.71-4.677C14.916-.634 18.171.232 19.542.925c2.878-2.079 5.653-.173 6.681 1.04 6.168-.52 5.424 10.05 4.626 12.47-.514 1.56-1.028 3.638-1.028 4.678.857 0 2.502.383 3.084 1.559.514 1.039-1.2 2.251-2.056 2.598-5.08 3.082-7.315 6.163-9.186 8.743l-.065.09Z" />
      <path stroke="#82D25C" stroke-linecap="round" stroke-opacity=".7" stroke-width="1.807"
        d="M27.696 18.135c.536-1.41 1.5-5.285 1.072-9.513M25.34 19.027c-.18-3.087-1.081-10.085-3.242-13.378m.884 14.567c-1.193-3.294-3.438-10.168-5.893-13.08M20.92 22c-3.082-2.53-8.868-8.059-10.608-11.297m8.545 13.081c-2.57-.84-8.556-3.504-12.67-7.135m11.491 9.811c-1.727 0-7.104-1.16-12.08-3.568" />
      <ellipse cx="2.384" cy="2.172" fill="#fff" rx="2.384" ry="2.172"
        transform="rotate(83.248 4.548 16.502) skewX(.121)" />
      <ellipse cx="2.387" cy="2.156" fill="#fff" rx="2.387" ry="2.156"
        transform="scale(.9955 1.00447) rotate(45 -7.88 22.78)" />
      <ellipse cx="1.018" cy=".858" fill="#000" rx="1.018" ry=".858"
        transform="matrix(.30895 .95108 -.94943 .314 18.575 11.699)" />
      <ellipse cx="1.012" cy=".864" fill="#000" rx="1.012" ry=".864"
        transform="matrix(.65058 .75943 -.75363 .6573 14.087 14.099)" />
      <path stroke="#000" stroke-linecap="round" stroke-width="1.314"
        d="M16.351 18.299c.05-.4.208-.93 1.04-1.05.833-.12 1.041-.9 1.041-.9.298-.9 1.338-.75 1.487-.75" />
      <path fill="#fff"
        d="M24.973 7.529c.323.952-.644 1.458-1.214 1.23-1.13-.518-1.088-1.965-.654-2.965.084-.215.065.068.657.694.657.695 1.103.724 1.21 1.041Zm2.256.193c-.262-.212-1.152-.708-1.448-1.117-.168.478-.326 1.756.56 2.087.944.353 1.282-.652.888-.97Z" />
      <path fill="#000" fill-opacity=".4"
        d="M21.599 32.104C19.932 34.4 18 31.758 18 30.025c-7.401 0-11.479-.866-12.85-1.559C2.583 27.427.013 24.83 1.555 22.75c-3.084-4.157-.856-6.755.514-7.795C.835 10.798 3.953 8.2 5.666 7.68c1.233-4.988 5.825-5.023 7.71-4.677C14.916-.634 18.171.232 19.542.925c2.878-2.079 5.653-.173 6.681 1.04 6.168-.52 5.424 10.05 4.626 12.47-.514 1.56-1.028 3.638-1.028 4.678.857 0 2.502.383 3.084 1.559.514 1.039-1.2 2.251-2.056 2.598-5.08 3.082-7.315 6.163-9.186 8.743l-.065.09Z" />
    </symbol>


    <symbol id="shell_anxiety_hovered" width="33" height="33" fill="none" viewBox="0 0 33 33">
      <path fill="#A9EBF7"
        d="M21.599 32.104C19.932 34.4 18 31.758 18 30.025c-7.401 0-11.479-.866-12.85-1.559C2.583 27.427.013 24.83 1.555 22.75c-3.084-4.157-.856-6.755.514-7.795C.835 10.798 3.953 8.2 5.666 7.68c1.233-4.988 5.825-5.023 7.71-4.677C14.916-.634 18.171.232 19.542.925c2.878-2.079 5.653-.173 6.681 1.04 6.168-.52 5.424 10.05 4.626 12.47-.514 1.56-1.028 3.638-1.028 4.678.857 0 2.502.383 3.084 1.559.514 1.039-1.2 2.251-2.056 2.598-5.08 3.082-7.315 6.163-9.186 8.743l-.065.09Z" />
      <path stroke="#75DEF9" stroke-linecap="round" stroke-opacity=".7" stroke-width="1.807"
        d="M27.696 18.135c.536-1.41 1.5-5.285 1.072-9.513M25.34 19.027c-.18-3.087-1.081-10.085-3.242-13.378m.884 14.567c-1.193-3.294-3.438-10.168-5.893-13.08M20.92 22c-3.082-2.53-8.868-8.059-10.608-11.297m8.545 13.081c-2.57-.84-8.556-3.504-12.67-7.135m11.492 9.811c-1.728 0-7.105-1.16-12.08-3.568" />
      <ellipse cx="1.075" cy=".855" fill="#000" rx="1.075" ry=".855"
        transform="matrix(.38123 .92448 -.92203 .3871 19.136 11.003)" />
      <ellipse cx="1.073" cy=".857" fill="#000" rx="1.073" ry=".857"
        transform="matrix(.65058 .75943 -.75363 .6573 13.402 14.974)" />
      <path stroke="#000" stroke-linecap="round" stroke-width="1.15"
        d="M16.5 14.821c.686.129 1.993 0 2.422 0m-2.573 2.291s.15-1.527 0-2.29" />
      <path fill="#000" fill-opacity=".4"
        d="M21.599 32.104C19.932 34.4 18 31.758 18 30.025c-7.401 0-11.479-.866-12.85-1.559C2.583 27.427.013 24.83 1.555 22.75c-3.084-4.157-.856-6.755.514-7.795C.835 10.798 3.953 8.2 5.666 7.68c1.233-4.988 5.825-5.023 7.71-4.677C14.916-.634 18.171.232 19.542.925c2.878-2.079 5.653-.173 6.681 1.04 6.168-.52 5.424 10.05 4.626 12.47-.514 1.56-1.028 3.638-1.028 4.678.857 0 2.502.383 3.084 1.559.514 1.039-1.2 2.251-2.056 2.598-5.08 3.082-7.315 6.163-9.186 8.743l-.065.09Z" />
    </symbol>


    <symbol id="shell_sad_hovered" width="33" height="33" fill="none" viewBox="0 0 33 33">
      <path fill="#89CAF0"
        d="M21.599 32.104C19.932 34.4 18 31.758 18 30.025c-7.401 0-11.479-.866-12.85-1.559C2.583 27.427.013 24.83 1.555 22.75c-3.084-4.157-.856-6.755.514-7.795C.835 10.798 3.953 8.2 5.666 7.68c1.233-4.988 5.825-5.023 7.71-4.677C14.916-.634 18.171.232 19.542.925c2.878-2.079 5.653-.173 6.681 1.04 6.168-.52 5.424 10.05 4.626 12.47-.514 1.56-1.028 3.638-1.028 4.678.857 0 2.502.383 3.084 1.559.514 1.039-1.2 2.251-2.056 2.598-5.08 3.082-7.315 6.163-9.186 8.743l-.065.09Z" />
      <path stroke="#58BBF2" stroke-linecap="round" stroke-opacity=".7" stroke-width="1.807"
        d="M27.696 18.135c.536-1.41 1.5-5.285 1.072-9.513M25.34 19.027c-.18-3.087-1.081-10.085-3.242-13.378m.884 14.567c-1.193-3.294-3.438-10.168-5.893-13.08M20.92 22c-3.082-2.53-8.868-8.059-10.608-11.297m8.545 13.081c-2.57-.84-8.556-3.504-12.67-7.135m11.492 9.811c-1.728 0-7.105-1.16-12.08-3.568" />
      <path stroke="#fff" stroke-linecap="round" stroke-width="1.478"
        d="M19.225 13.136c.706.305 2.028 1.038 2.876 2.138m-9.537 2.291c.101.662.394 2.26 1.363 3.36" />
      <ellipse cx="1.075" cy=".855" fill="#000" rx="1.075" ry=".855"
        transform="matrix(.38123 .92448 -.92203 .3871 18.53 10.692)" />
      <ellipse cx="1.073" cy=".857" fill="#000" rx="1.073" ry=".857"
        transform="matrix(.65058 .75943 -.75363 .6573 12.19 14.663)" />
      <path stroke="#000" stroke-linecap="round" stroke-width="1.314"
        d="M15.289 16.038c.151-.755.757-1.68 2.27-1.68" />
      <ellipse cx="14.986" cy="22.758" fill="#fff" rx=".757" ry=".764" />
      <path fill="#000" fill-opacity=".4"
        d="M21.599 32.104C19.932 34.4 18 31.758 18 30.025c-7.401 0-11.479-.866-12.85-1.559C2.583 27.427.013 24.83 1.555 22.75c-3.084-4.157-.856-6.755.514-7.795C.835 10.798 3.953 8.2 5.666 7.68c1.233-4.988 5.825-5.023 7.71-4.677C14.916-.634 18.171.232 19.542.925c2.878-2.079 5.653-.173 6.681 1.04 6.168-.52 5.424 10.05 4.626 12.47-.514 1.56-1.028 3.638-1.028 4.678.857 0 2.502.383 3.084 1.559.514 1.039-1.2 2.251-2.056 2.598-5.08 3.082-7.315 6.163-9.186 8.743l-.065.09Z" />
    </symbol>


    <symbol id="shell_normal_hovered" width="33" height="33" fill="none" viewBox="0 0 33 33">
      <path fill="#E2CFFF"
        d="M21.599 32.104C19.932 34.4 18 31.758 18 30.025c-7.401 0-11.479-.866-12.85-1.559C2.583 27.427.013 24.83 1.555 22.75c-3.084-4.157-.856-6.755.514-7.795C.835 10.798 3.953 8.2 5.666 7.68c1.233-4.988 5.825-5.023 7.71-4.677C14.916-.634 18.171.232 19.542.925c2.878-2.079 5.653-.173 6.681 1.04 6.168-.52 5.424 10.05 4.626 12.47-.514 1.56-1.028 3.638-1.028 4.678.857 0 2.502.383 3.084 1.559.514 1.039-1.2 2.251-2.056 2.598-5.08 3.082-7.315 6.163-9.186 8.743l-.065.09Z" />
      <path stroke="#D2B1FD" stroke-linecap="round" stroke-opacity=".7" stroke-width="1.807"
        d="M27.696 18.135c.536-1.41 1.5-5.285 1.072-9.513M25.34 19.027c-.18-3.087-1.081-10.085-3.242-13.378m.884 14.567c-1.193-3.294-3.438-10.168-5.893-13.08M20.92 22c-3.082-2.53-8.868-8.059-10.608-11.297m8.545 13.081c-2.57-.84-8.557-3.504-12.67-7.135m11.492 9.811c-1.728 0-7.105-1.16-12.08-3.568" />
      <path stroke="#000" stroke-linecap="round" stroke-width="1.478"
        d="M16.954 16.343c.575-.802 1.06-1.222 1.852-1.798" />
      <ellipse cx="1.074" cy=".856" fill="#000" rx="1.074" ry=".856"
        transform="matrix(.49152 .87086 -.86705 .49823 19.274 10.35)" />
      <ellipse cx="1.072" cy=".858" fill="#000" rx="1.072" ry=".858"
        transform="matrix(.73396 .67919 -.6726 .74 13.547 15.595)" />
      <path fill="#000" fill-opacity=".4"
        d="M21.599 32.104C19.932 34.4 18 31.758 18 30.025c-7.401 0-11.479-.866-12.85-1.559C2.583 27.427.013 24.83 1.555 22.75c-3.084-4.157-.856-6.755.514-7.795C.835 10.798 3.953 8.2 5.666 7.68c1.233-4.988 5.825-5.023 7.71-4.677C14.916-.634 18.171.232 19.542.925c2.878-2.079 5.653-.173 6.681 1.04 6.168-.52 5.424 10.05 4.626 12.47-.514 1.56-1.028 3.638-1.028 4.678.857 0 2.502.383 3.084 1.559.514 1.039-1.2 2.251-2.056 2.598-5.08 3.082-7.315 6.163-9.186 8.743l-.065.09Z" />
    </symbol>


    <symbol id="shell_tired_hovered" width="33" height="33" fill="none" viewBox="0 0 33 33">
      <path fill="#BAADFE"
        d="M21.599 32.104C19.932 34.4 18 31.758 18 30.025c-7.401 0-11.479-.866-12.85-1.559C2.583 27.427.013 24.83 1.555 22.75c-3.084-4.157-.856-6.755.514-7.795C.835 10.798 3.953 8.2 5.666 7.68c1.233-4.988 5.825-5.023 7.71-4.677C14.916-.634 18.171.232 19.542.925c2.878-2.079 5.653-.173 6.681 1.04 6.168-.52 5.424 10.05 4.626 12.47-.514 1.56-1.028 3.638-1.028 4.678.857 0 2.502.383 3.084 1.559.514 1.039-1.2 2.251-2.056 2.598-5.08 3.082-7.315 6.163-9.186 8.743l-.065.09Z" />
      <path stroke="#A08FF6" stroke-linecap="round" stroke-opacity=".7" stroke-width="1.807"
        d="M27.697 18.135c.535-1.41 1.5-5.285 1.071-9.513M25.34 19.027c-.18-3.087-1.081-10.085-3.242-13.378m.884 14.567c-1.193-3.294-3.438-10.168-5.893-13.08M20.92 22c-3.082-2.53-8.868-8.059-10.607-11.297m8.544 13.081c-2.57-.84-8.556-3.504-12.67-7.135m11.492 9.811c-1.728 0-7.105-1.16-12.08-3.568" />
      <path stroke="#000" stroke-width=".986"
        d="M17.89 16.487c-.402.284-.813.43-1.137.458-.337.028-.482-.073-.53-.142-.048-.069-.092-.24.049-.55.135-.299.412-.639.813-.923.401-.284.813-.43 1.136-.457.338-.028.482.072.53.141.048.07.093.24-.049.551-.135.298-.411.638-.813.922Z" />
      <ellipse cx="1.504" cy="1.149" fill="#9590B6" rx="1.504" ry="1.149"
        transform="scale(.9955 1.00447) rotate(-45 27.368 -6.168)" />
      <ellipse cx="1.502" cy="1.15" fill="#9590B6" rx="1.502" ry="1.15"
        transform="matrix(.77916 -.62683 .62 .7846 17.862 13.186)" />
      <path stroke="#000" stroke-linecap="round" stroke-width="1.314"
        d="M13.624 16.602a5.29 5.29 0 0 1 .499-1.289m4.043-2.586c.3-.045.748-.112 1.37-.051" />
      <path fill="#000" fill-opacity=".4"
        d="M21.599 32.104C19.932 34.4 18 31.758 18 30.025c-7.401 0-11.479-.866-12.85-1.559C2.583 27.427.013 24.83 1.555 22.75c-3.084-4.157-.856-6.755.514-7.795C.835 10.798 3.953 8.2 5.666 7.68c1.233-4.988 5.825-5.023 7.71-4.677C14.916-.634 18.171.232 19.542.925c2.878-2.079 5.653-.173 6.681 1.04 6.168-.52 5.424 10.05 4.626 12.47-.514 1.56-1.028 3.638-1.028 4.678.857 0 2.502.383 3.084 1.559.514 1.039-1.2 2.251-2.056 2.598-5.08 3.082-7.315 6.163-9.186 8.743l-.065.09Z" />
    </symbol>


    <symbol id="leftArrow" width="25" height="42" fill="none" viewBox="0 0 25 42">
      <path fill="currentColor"
        d="M23.349 4.535A2.5 2.5 0 1 0 19.813 1l3.536 3.535ZM19.813 1 2 18.813l3.536 3.536L23.349 4.535 19.813 1Z" />
      <path fill="currentColor"
        d="M20.465 40.786A2.5 2.5 0 0 0 24 37.25l-3.535 3.536ZM24 37.25 3.782 17.032.246 20.567l20.218 20.219L24 37.25Z" />
    </symbol>


    <symbol id="rightArrow" width="25" height="42" fill="none" viewBox="0 0 25 42">
      <path fill="currentColor"
        d="M1.651 37.715a2.5 2.5 0 1 0 3.536 3.535L1.65 37.715Zm3.536 3.535L23 23.437 19.464 19.9 1.651 37.715l3.536 3.535Z" />
      <path fill="currentColor"
        d="M4.535 1.464A2.5 2.5 0 0 0 1 5l3.535-3.536ZM1 5l20.218 20.218 3.536-3.536L4.535 1.464 1 5Z" />
    </symbol>


  </defs>
</svg>